<?xml version="1.0" encoding="UTF-8"?>
<svg xmlns="http://www.w3.org/2000/svg" xmlns:xlink="http://www.w3.org/1999/xlink" width="144pt" height="144pt" viewBox="0 0 144 144" version="1.1">
<g id="surface7350330">
<path style=" stroke:none;fill-rule:nonzero;fill:rgb(100%,100%,100%);fill-opacity:1;" d="M 72 144 C 32.234375 144 0 111.765625 0 72 C 0 32.234375 32.234375 0 72 0 C 111.765625 0 144 32.234375 144 72 C 144 111.765625 111.765625 144 72 144 Z M 72 144 "/>
<path style=" stroke:none;fill-rule:nonzero;fill:rgb(0%,0%,50.196081%);fill-opacity:1;" d="M 72 0 C 32.300781 0 0 32.300781 0 72 C 0 111.699219 32.300781 144 72 144 C 111.699219 144 144 111.699219 144 72 C 144 32.300781 111.699219 0 72 0 Z M 99.359375 97.273438 C 98.953125 97.710938 89.214844 108 72 108 C 54.785156 108 45.046875 97.710938 44.640625 97.273438 C 43.714844 96.269531 43.199219 94.960938 43.199219 93.601562 L 43.199219 83.148438 L 61.660156 91.171875 C 64.972656 92.78125 68.472656 93.601562 72.054688 93.601562 C 75.570312 93.601562 78.964844 92.816406 81.863281 91.398438 L 100.800781 83.15625 L 100.800781 93.601562 C 100.800781 94.960938 100.285156 96.269531 99.359375 97.273438 Z M 118.800781 84.601562 C 118.800781 87.585938 116.378906 90 113.398438 90 C 110.417969 90 108 87.585938 108 84.601562 L 108 68.589844 L 78.988281 81.210938 C 76.796875 82.28125 74.433594 82.820312 72.050781 82.820312 C 69.613281 82.820312 67.152344 82.257812 64.804688 81.117188 L 28.445312 65.304688 C 26.515625 64.464844 25.242188 62.574219 25.199219 60.46875 C 25.15625 58.363281 26.339844 56.417969 28.238281 55.496094 L 64.804688 37.695312 C 69.445312 35.433594 74.554688 35.433594 79.195312 37.695312 L 115.761719 55.496094 C 117.65625 56.417969 118.839844 58.359375 118.800781 60.46875 C 118.792969 60.871094 118.800781 84.601562 118.800781 84.601562 Z M 118.800781 84.601562 "/>
</g>
</svg>
