<?xml version="1.0" encoding="UTF-8"?>
<svg xmlns="http://www.w3.org/2000/svg" xmlns:xlink="http://www.w3.org/1999/xlink" width="144pt" height="144pt" viewBox="0 0 144 144" version="1.1">
<g id="surface7332516">
<path style=" stroke:none;fill-rule:nonzero;fill:rgb(0%,0%,50.196081%);fill-opacity:1;" d="M 72 144 C 32.234375 144 0 111.765625 0 72 C 0 32.234375 32.234375 0 72 0 C 111.765625 0 144 32.234375 144 72 C 144 111.765625 111.765625 144 72 144 Z M 72 144 "/>
<path style=" stroke:none;fill-rule:nonzero;fill:rgb(100%,100%,100%);fill-opacity:1;" d="M 76.28125 42.09375 L 86.417969 27.078125 C 87.972656 24.445312 87.996094 21.292969 86.484375 18.636719 C 84.96875 15.984375 82.242188 14.398438 79.1875 14.398438 L 63.082031 14.398438 C 59.957031 14.398438 57.113281 16.117188 55.65625 18.875 C 54.195312 21.632812 54.382812 24.949219 56.277344 27.71875 L 67.652344 42.28125 L 44 108.6875 C 44 108.695312 43.996094 108.703125 43.992188 108.710938 C 43.121094 111.222656 44.023438 114.046875 46.195312 115.578125 C 46.296875 115.652344 46.402344 115.71875 46.507812 115.777344 L 70.234375 129.132812 C 70.78125 129.445312 71.390625 129.601562 72 129.601562 C 72.609375 129.601562 73.21875 129.445312 73.765625 129.136719 L 97.492188 115.777344 C 97.597656 115.722656 97.703125 115.652344 97.804688 115.582031 C 99.972656 114.046875 100.878906 111.222656 99.996094 108.6875 Z M 76.28125 42.09375 "/>
</g>
</svg>
