<?xml version="1.0" encoding="UTF-8"?>
<svg xmlns="http://www.w3.org/2000/svg" xmlns:xlink="http://www.w3.org/1999/xlink" width="144pt" height="144pt" viewBox="0 0 144 144" version="1.1">
<g id="surface7424336">
<path style=" stroke:none;fill-rule:nonzero;fill:rgb(0%,0%,50.196081%);fill-opacity:1;" d="M 72 144 C 32.234375 144 0 111.765625 0 72 C 0 32.234375 32.234375 0 72 0 C 111.765625 0 144 32.234375 144 72 C 144 111.765625 111.765625 144 72 144 Z M 72 144 "/>
<path style=" stroke:none;fill-rule:nonzero;fill:rgb(100%,100%,100%);fill-opacity:1;" d="M 58.972656 27 C 54.4375 27 50.683594 30.753906 50.683594 35.289062 L 50.683594 48.316406 L 37.65625 48.316406 C 30.476562 48.316406 24.632812 54.160156 24.632812 61.34375 L 24.632812 69.632812 L 43.578125 69.632812 L 43.578125 68.449219 C 43.578125 66.484375 45.171875 64.894531 47.132812 64.894531 L 54.238281 64.894531 C 56.199219 64.894531 57.789062 66.484375 57.789062 68.449219 L 57.789062 69.632812 L 86.210938 69.632812 L 86.210938 68.449219 C 86.210938 66.484375 87.800781 64.894531 89.761719 64.894531 L 96.867188 64.894531 C 98.828125 64.894531 100.421875 66.484375 100.421875 68.449219 L 100.421875 69.632812 L 119.367188 69.632812 L 119.367188 61.34375 C 119.367188 54.160156 113.523438 48.316406 106.34375 48.316406 L 93.316406 48.316406 L 93.316406 35.289062 C 93.316406 30.753906 89.5625 27 85.027344 27 Z M 58.972656 34.105469 L 85.027344 34.105469 C 85.726562 34.105469 86.210938 34.589844 86.210938 35.289062 L 86.210938 48.316406 L 57.789062 48.316406 L 57.789062 35.289062 C 57.789062 34.589844 58.273438 34.105469 58.972656 34.105469 Z M 24.632812 76.738281 L 24.632812 103.972656 C 24.632812 111.15625 30.476562 117 37.65625 117 L 106.34375 117 C 113.523438 117 119.367188 111.15625 119.367188 103.972656 L 119.367188 76.738281 L 100.421875 76.738281 L 100.421875 77.921875 C 100.421875 79.882812 98.828125 81.472656 96.867188 81.472656 L 89.761719 81.472656 C 87.800781 81.472656 86.210938 79.882812 86.210938 77.921875 L 86.210938 76.738281 L 57.789062 76.738281 L 57.789062 77.921875 C 57.789062 79.882812 56.199219 81.472656 54.238281 81.472656 L 47.132812 81.472656 C 45.171875 81.472656 43.578125 79.882812 43.578125 77.921875 L 43.578125 76.738281 Z M 24.632812 76.738281 "/>
</g>
</svg>
